<svg width="32" height="32" viewBox="0 0 32 32" fill="none" xmlns="http://www.w3.org/2000/svg">
<rect width="32" height="32" rx="4" fill="#0A1250"/>
<path fill-rule="evenodd" clip-rule="evenodd" d="M18.1911 11.9294H17.3987L16.4832 9.05615L14.3607 15.7166H13.4082L12.7674 15.2444L16.0075 5.07693L18.1911 11.9294ZM14.5357 18.0863L8.84929 13.8738H11.9342L12.2281 13.0745L5 13.0826L13.5959 19.4504L14.2541 18.9592L14.5357 18.0863ZM16.4405 14.7736H23.3732L21.0057 16.5275L21.2632 17.3329L27 13.083H16.4138L16.1591 13.8847L16.4405 14.7736ZM11.2053 22.7039L16.796 18.5623L17.5661 19.136L17.8134 19.8923L9.27099 26.2166L11.4644 19.334L12.1125 19.857L11.2053 22.7039ZM17.9247 16.577L20.05 23.246L17.7387 21.5408L17.0438 22.0048L22.7483 26.2308L19.4797 15.9864L18.7333 15.9869L17.9247 16.577Z" fill="#FFFFFA"/>
</svg>
